<svg xmlns="http://www.w3.org/2000/svg" fill="none" viewBox="0 0 24 24" id="C--Streamline-Svg-Logos" height="24" width="24">
  <desc>
    C Streamline Icon: https://streamlinehq.com
  </desc>
  <path fill="#a9b9cb" d="M22.443375 7.159c-0.00015 -0.395175 -0.0846 -0.744325 -0.255325 -1.04395 -0.167675 -0.294725 -0.4189 -0.54165 -0.75575 -0.737 -2.7809 -1.605 -5.564525 -3.2051275 -8.34445 -4.8117775 -0.749475 -0.43303775 -1.476175 -0.4172895 -2.2201 0.02203 -1.106875 0.65343 -6.648625 3.8314725 -8.3 4.7888725 -0.680025 0.3941 -1.010985 0.9972 -1.0111475 1.7811 -0.00106 3.227825 0 6.455475 -0.00106 9.683375 0.0001625 0.38645 0.081025 0.728825 0.24422 1.02405 0.167765 0.30355 0.42243 0.557325 0.7670875 0.757075 1.65145 0.957375 7.19395 4.135175 8.300575 4.788775 0.74425 0.43955 1.47095 0.455225 2.220675 0.022025 2.78 -1.606725 5.563775 -3.206775 8.3451 -4.8118 0.344675 -0.19965 0.59935 -0.4536 0.7671 -0.756875 0.16295 -0.295225 0.243975 -0.6376 0.24415 -1.02415 0 0 0 -6.45385 -0.001075 -9.68175Z" stroke-width="0.25"></path>
  <path fill="#7f8b99" d="M13.069 0.587335c-0.74825 -0.43197475 -1.473725 -0.41622625 -2.216425 0.02195C9.7475 1.2610025 4.2148 4.4308 2.566125 5.38575c-0.6789725 0.39305 -1.00936 0.994575 -1.0095225 1.77645 -0.00106 3.219425 0 6.43875 -0.00106 9.65825 0.0001625 0.385475 0.0808625 0.72695 0.2438125 1.02135 0.16752 0.302825 0.421775 0.555925 0.76587 0.7551 0.377725 0.218775 0.9595 0.5539 1.644925 0.948175l15.2662 -15.2662c-2.136075 -1.23 -4.272675 -2.4590125 -6.40735 -3.69154Z" stroke-width="0.25"></path>
  <path fill="#ffffff" d="m14.158675 10.52855 3.250775 0.02295c0 -1.35445 -1.371 -4.671375 -5.301625 -4.671375 -2.5043 0 -5.871 1.592125 -5.871 6.169575 0 4.57735 3.30035 6.070025 5.871 6.070025 4.16285 0 5.15775 -2.88055 5.15775 -4.508425l-3.10125 -0.1773s0.082975 1.88285 -2.073075 1.88285c-1.99015 0 -2.32225 -2.437975 -2.32225 -3.26715 0 -1.260425 0.448225 -3.2838 2.32225 -3.2838 1.874125 0 2.067425 1.76265 2.067425 1.76265Z" stroke-width="0.25"></path>
</svg>