<svg width="122" height="129" viewBox="0 0 122 129" fill="none" xmlns="http://www.w3.org/2000/svg">
<path d="M3.9255 14.3525H118.317C118.83 14.3525 119.243 14.7843 119.243 15.3207V125.116C119.243 125.653 118.83 126.084 118.317 126.084H3.9255C3.41278 126.084 3 125.653 3 125.116V15.3207C3 14.7843 3.41278 14.3525 3.9255 14.3525Z" fill="white" stroke="#9D9D9D" stroke-width="4.85049"/>
<path d="M32.5163 60.6368L49.4439 39.2266C52.9041 34.8621 54.6342 31.5985 54.6343 29.4357C54.6342 28.6494 54.5359 28.0203 54.3393 27.5483H83.8889C81.6476 28.8067 78.8361 31.4609 75.4546 35.5108C74.5502 36.5726 72.9577 38.5189 70.6771 41.3499L48.5002 68.9531L74.9828 105.404C76.5948 107.605 78.6395 110.083 81.1168 112.835C81.7852 113.543 82.7485 114.388 84.0069 115.371H53.6906C53.9264 114.467 54.0444 113.661 54.0444 112.953C54.0444 110.79 52.5502 107.664 49.5619 103.575L32.5163 80.3365V103.87C32.5163 109.336 33.6173 113.169 35.8193 115.371H8.09808C9.63159 113.838 10.6146 112.088 11.0471 110.122C11.2831 109.021 11.401 106.957 11.401 103.929V38.9907C11.401 35.963 11.2831 33.8987 11.0471 32.7977C10.6146 30.8317 9.63159 29.0819 8.09808 27.5483H35.8193C33.6173 29.7504 32.5163 33.5645 32.5163 38.9907V60.6368Z" fill="#0A0A0A"/>
<path d="M111.728 50.8459V104.991C111.728 107.822 111.807 109.67 111.964 110.535C112.279 112.304 113.104 113.916 114.441 115.371H88.4895C89.8264 113.916 90.6521 112.304 90.9667 110.535C91.124 109.67 91.2026 107.822 91.2026 104.991V61.1087C91.2026 58.2777 91.1239 56.4492 90.9667 55.6234C90.6521 53.8934 89.8461 52.3009 88.5485 50.8459H111.728ZM101.465 19.9988C104.729 19.9989 107.501 21.1589 109.782 23.4787C112.102 25.7594 113.262 28.5315 113.262 31.795C113.262 35.1374 112.121 37.9488 109.841 40.2294C107.599 42.4707 104.808 43.5913 101.465 43.5912C98.2017 43.5913 95.4099 42.451 93.09 40.1703C90.8094 37.8505 89.6691 35.0588 89.6691 31.795C89.6691 28.4529 90.7898 25.661 93.0311 23.4197C95.3116 21.1392 98.1231 19.9989 101.465 19.9988Z" fill="#0A0A0A"/>
<path d="M87.5369 19.0283H115.852V46.0591H87.5369V19.0283Z" fill="white"/>
<path d="M101.294 0C93.286 0 86.7941 6.71573 86.7941 15H115.794C115.794 6.71573 109.302 0 101.294 0Z" fill="#9D9D9D"/>
<path d="M113.415 14.3815C113.415 20.984 108.047 26.3362 101.425 26.3362C94.8031 26.3362 89.4349 20.984 89.4349 14.3815C89.4349 7.77909 94.8031 2.42676 101.425 2.42676C108.047 2.42676 113.415 7.77909 113.415 14.3815Z" fill="#0A0A0A"/>
</svg>
