<svg width="1440" height="1440" viewBox="0 0 1440 1440" fill="none" xmlns="http://www.w3.org/2000/svg">
<g clip-path="url(#clip0_5_2)">
<mask id="mask0_5_2" style="mask-type:luminance" maskUnits="userSpaceOnUse" x="0" y="0" width="1440" height="1440">
<path d="M0 -4.29153e-05H1440V1440H0V-4.29153e-05Z" fill="white"/>
</mask>
<g mask="url(#mask0_5_2)">
<path d="M1124 698C1124 926.645 938.645 1112 710 1112C481.355 1112 296 926.645 296 698C296 469.355 481.355 284 710 284C938.645 284 1124 469.355 1124 698Z" fill="#DBEAFE"/>
</g>
<mask id="mask1_5_2" style="mask-type:luminance" maskUnits="userSpaceOnUse" x="0" y="0" width="1441" height="1440">
<path d="M3.05176e-05 -4.29153e-05H1440V1440H3.05176e-05V-4.29153e-05Z" fill="white"/>
</mask>
<g mask="url(#mask1_5_2)">
<path d="M394.467 873.35C388.82 874.22 387.502 881.847 392.551 884.523C392.607 884.552 392.662 884.582 392.718 884.611C414.419 896.059 438.387 898.867 460.675 894.238C489.334 888.31 515.222 870.084 529.943 842.182C545.548 812.603 573.679 793.906 604.367 789.174C610.014 788.303 611.332 780.682 606.287 778.002C606.23 777.971 606.172 777.94 606.115 777.911C584.414 766.463 560.446 763.655 538.158 768.284C509.499 774.212 483.611 792.438 468.89 820.339C453.29 849.918 425.155 868.615 394.467 873.35Z" fill="#6E6EFF"/>
</g>
<mask id="mask2_5_2" style="mask-type:luminance" maskUnits="userSpaceOnUse" x="0" y="0" width="1440" height="1440">
<path d="M0 -4.29153e-05H1440V1440H0V-4.29153e-05Z" fill="white"/>
</mask>
<g mask="url(#mask2_5_2)">
<path d="M693.991 796.716C688.345 797.587 687.026 805.213 692.075 807.889C692.131 807.919 692.186 807.948 692.242 807.977C713.943 819.425 737.911 822.233 760.199 817.604C788.858 811.676 814.746 793.451 829.467 765.548C845.073 735.969 873.203 717.272 903.891 712.54C909.538 711.669 910.857 704.048 905.811 701.368C905.754 701.337 905.697 701.307 905.639 701.277C883.938 689.829 859.97 687.021 837.682 691.651C809.023 697.579 783.135 715.804 768.414 743.705C752.814 773.284 724.679 791.981 693.991 796.716Z" fill="#6E6EFF"/>
</g>
<mask id="mask3_5_2" style="mask-type:luminance" maskUnits="userSpaceOnUse" x="0" y="0" width="1440" height="1440">
<path d="M0 -4.29153e-05H1440V1440H0V-4.29153e-05Z" fill="white"/>
</mask>
<g mask="url(#mask3_5_2)">
<path d="M998.024 715.151C992.377 716.022 991.058 723.649 996.108 726.325C996.164 726.354 996.218 726.383 996.274 726.413C1017.98 737.861 1041.94 740.669 1064.23 736.039C1092.89 730.111 1118.78 711.886 1133.5 683.983C1149.1 654.405 1177.24 635.707 1207.92 630.975C1213.57 630.105 1214.89 622.483 1209.84 619.803C1209.79 619.773 1209.73 619.742 1209.67 619.713C1187.97 608.265 1164 605.457 1141.71 610.086C1113.06 616.014 1087.17 634.239 1072.45 662.141C1056.85 691.719 1028.71 710.417 998.024 715.151Z" fill="#6E6EFF"/>
</g>
<mask id="mask4_5_2" style="mask-type:luminance" maskUnits="userSpaceOnUse" x="0" y="0" width="1440" height="1440">
<path d="M0 -4.29153e-05H1440V1440H0V-4.29153e-05Z" fill="white"/>
</mask>
<g mask="url(#mask4_5_2)">
<path d="M452.625 801.207C457.881 799.21 462.713 805.097 459.693 809.839C459.659 809.891 459.626 809.943 459.593 809.995C446.581 830.334 427.431 844.381 406.109 851.245C378.702 860.093 347.693 857.071 321.539 840.343C293.815 822.61 260.658 820.273 232.095 831.129C226.841 833.127 222.009 827.245 225.025 822.501C225.059 822.447 225.094 822.393 225.129 822.339C238.141 802.001 257.289 787.954 278.613 781.09C306.019 772.242 337.027 775.263 363.181 791.991C390.899 809.727 424.061 812.062 452.625 801.207Z" fill="#0092FF"/>
</g>
<mask id="mask5_5_2" style="mask-type:luminance" maskUnits="userSpaceOnUse" x="0" y="0" width="1440" height="1440">
<path d="M6.10352e-05 -4.29153e-05H1440V1440H6.10352e-05V-4.29153e-05Z" fill="white"/>
</mask>
<g mask="url(#mask5_5_2)">
<path d="M773.483 827.563C778.739 825.566 783.571 831.452 780.551 836.195C780.518 836.247 780.484 836.299 780.451 836.351C767.439 856.69 748.29 870.736 726.967 877.6C699.56 886.448 668.551 883.427 642.398 866.699C614.674 848.966 581.516 846.628 552.954 857.484C547.699 859.483 542.867 853.6 545.884 848.856C545.918 848.803 545.952 848.748 545.987 848.695C558.999 828.356 578.147 814.31 599.471 807.446C626.878 798.598 657.886 801.619 684.039 818.347C711.758 836.083 744.919 838.418 773.483 827.563Z" fill="#0092FF"/>
</g>
<mask id="mask6_5_2" style="mask-type:luminance" maskUnits="userSpaceOnUse" x="0" y="0" width="1440" height="1440">
<path d="M0 0H1440V1440H0V0Z" fill="white"/>
</mask>
<g mask="url(#mask6_5_2)">
<path d="M1075.9 752.523C1081.16 750.525 1085.99 756.412 1082.97 761.155C1082.94 761.207 1082.9 761.259 1082.87 761.311C1069.86 781.649 1050.71 795.696 1029.39 802.56C1001.98 811.408 970.971 808.387 944.818 791.659C917.094 773.925 883.937 771.588 855.374 782.444C850.119 784.443 845.287 778.56 848.303 773.816C848.338 773.763 848.373 773.708 848.407 773.655C861.419 753.316 880.567 739.269 901.891 732.405C929.298 723.557 960.306 726.579 986.459 743.307C1014.18 761.043 1047.34 763.377 1075.9 752.523Z" fill="#0092FF"/>
</g>
</g>
<defs>
<clipPath id="clip0_5_2">
<rect width="1440" height="1440" fill="white"/>
</clipPath>
</defs>
</svg>
